<svg xmlns="http://www.w3.org/2000/svg" xmlns:xlink="http://www.w3.org/1999/xlink" version="1.1" width="1000" height="1000" viewBox="0 0 1000 1000" xml:space="preserve">
<desc>Created with Fabric.js 3.5.0</desc>
<defs>
</defs>
<rect x="0" y="0" width="100%" height="100%" fill="#ffffff"/>
<g transform="matrix(-99.6542 0 0 99.6542 425.62 477.8152)" id="985281">
<path style="stroke: none; stroke-width: 1; stroke-dasharray: none; stroke-linecap: butt; stroke-dashoffset: 0; stroke-linejoin: miter; stroke-miterlimit: 4; is-custom-font: none; font-file-url: none; fill: rgb(0,0,0); fill-rule: nonzero; opacity: 1;" vector-effect="non-scaling-stroke" transform=" translate(-4, -4)" d="M 3 0 c -0.28 0 -0.54 0.1 -0.72 0.28 C 2.1 0.46 2 0.72 2 1 c 0 0.28 0.18 0.48 0.28 0.72 c 0.03 0.06 0.03 0.16 0.03 0.28 H 0 v 6 h 2.31 c 0 -0.12 -0.01 -0.22 -0.03 -0.28 C 2.18 7.48 2 7.28 2 7 c 0 -0.28 0.1 -0.54 0.28 -0.72 C 2.46 6.1 2.72 6 3 6 c 0.28 0 0.54 0.1 0.72 0.28 c 0.18 0.18 0.28 0.44 0.28 0.72 c 0 0.28 -0.18 0.48 -0.28 0.72 c -0.03 0.06 -0.03 0.16 -0.03 0.28 H 6 V 5.69 c 0.12 0 0.22 0.01 0.28 0.03 c 0.24 0.1 0.44 0.28 0.72 0.28 c 0.28 0 0.54 -0.1 0.72 -0.28 C 7.9 5.54 8 5.28 8 5 c 0 -0.28 -0.1 -0.54 -0.28 -0.72 C 7.54 4.1 7.28 4 7 4 c -0.28 0 -0.48 0.18 -0.72 0.28 c -0.06 0.03 -0.16 0.03 -0.28 0.03 V 2 H 3.69 c 0 -0.12 0.01 -0.22 0.03 -0.28 c 0.1 -0.24 0.28 -0.44 0.28 -0.72 c 0 -0.28 -0.1 -0.54 -0.28 -0.72 C 3.54 0.1 3.28 0 3 0 z" stroke-linecap="round"/>
</g>
</svg>